<?xml version="1.0" encoding="UTF-8"?> <svg xmlns="http://www.w3.org/2000/svg" xmlns:xlink="http://www.w3.org/1999/xlink" id="e0EM9CcoNuO1" viewBox="0 0 228 152" shape-rendering="geometricPrecision" text-rendering="geometricPrecision" width="228px" height="152px"><g><g><g><path d="M195.934,95.7385l-6.161,19.8825c-.196.633.158,1.305.791,1.502l5.254,1.628c.633.196,1.305-.158,1.501-.791l6.161-19.8832c.057-.1838.069-.3785.035-.5678l-1.058-5.8767c-.172-.957-1.352-1.3225-2.035-.6306l-4.196,4.2488c-.135.1369-.235.3042-.292.488Z" fill="#fbd9bf" stroke="#3b3e45" stroke-width="1.6"></path><rect width="7.125" height="22.4712" rx="1" ry="1" transform="matrix(.955192 0.295988-.295988 0.955192 196.524007 95.410539)" fill="#f49b6e"></rect><path d="M196.071,95.2703l7.561,2.3432" fill="none" stroke="#3b3e45" stroke-width="1.6" stroke-linejoin="round"></path><path d="M201.822,90.0819l1.127,2.6815-3.572-1.1069l2.445-1.5746Z" fill="#3b3e45"></path></g><g><rect width="7.9" height="27.6917" rx="1.2" ry="1.2" transform="translate(184.467 88.675)" fill="#f2f4f7" stroke="#3b3e45" stroke-width="1.6"></rect><path d="M186.833,92.6333c.442,0,.8-.3582.8-.8s-.358-.8-.8-.8v1.6Zm-2.375,0h2.375v-1.6h-2.375v1.6Z" fill="#3b3e45"></path><path d="M189.208,95.8c.442,0,.8-.3582.8-.8s-.358-.8-.8-.8v1.6Zm-4.75,0h4.75v-1.6h-4.75v1.6Z" fill="#3b3e45"></path><path d="M188.417,98.9665c.442,0,.8-.3582.8-.8s-.358-.8-.8-.8v1.6Zm-3.959,0h3.959v-1.6h-3.959v1.6Z" fill="#3b3e45"></path><path d="M189.208,102.133c.442,0,.8-.358.8-.8c0-.441-.358-.8-.8-.8v1.6Zm-4.75,0h4.75v-1.6h-4.75v1.6Z" fill="#3b3e45"></path><path d="M186.833,105.3c.442,0,.8-.358.8-.8s-.358-.8-.8-.8v1.6Zm-2.375,0h2.375v-1.6h-2.375v1.6Z" fill="#3b3e45"></path><path d="M188.417,108.467c.442,0,.8-.358.8-.8s-.358-.8-.8-.8v1.6Zm-3.959,0h3.959v-1.6h-3.959v1.6Z" fill="#3b3e45"></path><path d="M186.833,110.842c.442,0,.8-.358.8-.8s-.358-.8-.8-.8v1.6Zm-2.375,0h2.375v-1.6h-2.375v1.6Z" fill="#3b3e45"></path></g><rect width="28.4833" height="26.9" rx="4.2" ry="4.2" transform="translate(174.967 111.633)" fill="#d45c26" stroke="#3b3e45" stroke-width="1.6"></rect></g><g><path d="M25.0327,138.534L21.6235,99.8168h30.7365L50.4714,138.534h-25.4387Z" fill="#fafbfc" stroke="#3b3e45" stroke-width="1.6"></path><g><g mask="url(#e0EM9CcoNuO25)"><g><path d="M25.0327,138.534L21.6235,99.8168h30.7365L50.4714,138.534h-25.4387Z" fill="#ee8652" stroke="#3b3e45" stroke-width="1.6"></path></g><mask id="e0EM9CcoNuO25" x="-150%" y="-150%" height="400%" width="400%"><rect width="38.225" height="19.5417" rx="0" ry="0" transform="translate(16.6333 108.175)" fill="#d9d9d9" stroke="#000" stroke-width="1.6"></rect></mask></g></g><rect width="25.4417" height="3.31667" rx="1.65833" ry="1.65833" transform="translate(24.0083 93.425)" fill="#fafbfc" stroke="#3b3e45" stroke-width="1.6"></rect><path d="M22.0609,96.375h29.3361c1.9115,0,3.4611,1.5495,3.4611,3.4611c0,.7349-.5957,1.3309-1.3305,1.3309h-33.5972c-.7349,0-1.3306-.596-1.3306-1.3309c0-1.9116,1.5496-3.4611,3.4611-3.4611Z" fill="#fafbfc" stroke="#3b3e45" stroke-width="1.6"></path><rect width="30.4833" height="1.26667" rx="0" ry="0" transform="translate(21.7334 107.375)" fill="#3b3e45"></rect><rect width="28.5167" height="1.26667" rx="0" ry="0" transform="translate(24.3 128.517)" fill="#3b3e45"></rect><g><path d="M35.5222,118.984c-.3729,1.119-2.4583,2.458-2.9499,2.458-.2459,0-.843-.492-.9834-1.475-.2456-1.721,1.5735-5.654,3.9333-6.637c2.95-1.23,4.425,0,3.6875,0-2.95.491-3.1856,4.148-3.6875,5.654Z" fill="#3b3e45" stroke="#3b3e45" stroke-width="1.6" stroke-linejoin="round"></path><path d="M38.1687,117.017c.3729-1.119,2.4583-2.458,2.95-2.458.2458,0,.843.491.9833,1.475.2457,1.721-1.5735,5.654-3.9333,6.637-2.95,1.229-4.425,0-3.6875,0c2.95-.491,3.1856-4.148,3.6875-5.654Z" fill="#3b3e45" stroke="#3b3e45" stroke-width="1.6" stroke-linejoin="round"></path></g></g><g><path d="M55.1895,51.3706h117.6215c3.976,0,7.2,3.2235,7.2,7.2v70.4184h-132.0215v-70.4185c0-3.9764,3.2235-7.1999,7.2-7.1999Z" fill="#52575e" stroke="#3b3e45" stroke-width="1.6"></path><rect width="120.568" height="66.1652" rx="5.2" ry="5.2" transform="translate(53.716 57.0971)" fill="#facbb3" stroke="#3b3e45" stroke-width="1.6"></rect><g id="e0EM9CcoNuO37" transform="translate(0-13)"><path d="M86.5947,52.8h54.8103c2.872,0,5.2,2.3281,5.2,5.2v80.054h-65.2103v-80.054c0-2.8719,2.3281-5.2,5.2-5.2Z" fill="#fff" stroke="#3b3e45" stroke-width="1.6"></path><path d="M139.062,84.3276c0,13.8414-11.22,25.0624-25.062,25.0624-13.841,0-25.0621-11.221-25.0621-25.0624c0-13.8415,11.2211-25.0623,25.0621-25.0623c13.842,0,25.062,11.2208,25.062,25.0623Z" fill="#fbe1d8" stroke="#3b3e45" stroke-width="1.6"></path><rect width="41.573" height="1.80752" rx="0.903761" ry="0.903761" transform="translate(97.7324 112.552)" fill="#3b3e45"></rect><rect width="41.573" height="1.80752" rx="0.903761" ry="0.903761" transform="translate(97.7324 123.397)" fill="#3b3e45"></rect><rect width="5.63009" height="5.63009" rx="1.2" ry="1.2" transform="translate(88.1391 112.835)" fill="#d45c26" stroke="#3b3e45" stroke-width="1.6"></rect><rect width="5.63009" height="5.63009" rx="1.2" ry="1.2" transform="translate(88.1391 123.68)" fill="#d45c26" stroke="#3b3e45" stroke-width="1.6"></rect><rect width="32.5354" height="1.80752" rx="0.903761" ry="0.903761" transform="translate(97.7324 117.071)" fill="#3b3e45"></rect><rect width="32.5354" height="1.80752" rx="0.903761" ry="0.903761" transform="translate(97.7324 127.916)" fill="#3b3e45"></rect><g><g mask="url(#e0EM9CcoNuO99)"><g><g><g mask="url(#e0EM9CcoNuO97)"><g><g><g><path d="M123.691,99.2808c-1.531-1.3727-3.062-2.7474-4.594-4.12-3.036-.3867-5.598-.401-8.154-.2864-2.436,1.1742-4.214,2.3955-5.836,3.7681.452,1.8265,1.673,3.4125,3.211,4.5025s3.375,1.71,5.647,1.978c2.03.369,4.186.009,5.984-1s3.227-2.655,3.742-4.8402v-.002Z" fill="#fff"></path><path d="M118.701,91.0447c.082,2.0089.236,4.0137.459,6.0123-1.496,1.4566-2.917,2.7126-4.337,3.969-1.618-1.3525-3.048-2.7088-4.549-3.9812-.027-2.1317-.014-4.0464-.004-5.9612-1.252-.2394-2.404-.9165-3.494-1.6079-.476-.3028-.952-.6138-1.334-1.027-.631-.6812-.957-1.5793-1.267-2.4507-1.535-.1637-2.898-.6751-3.709-1.7021-.8111-1.0269-.963-2.5816-.216-3.6556s2.412-1.4463,3.463-.6628c.175-2.9008.347-5.7996.596-8.6431.535.6853,1.535.9655,2.35.6566s1.377-1.1783,1.523-1.8125c.575,1.1006,1.827,1.7205,3.065,1.8473s2.478-.1636,3.681-.4787c1.763-.4644,3.522-.9942,5.435-1.8882c1.784.9124,2.96,2.7331,3.539,4.6458.579,1.9128.633,3.938.951,5.7444.269-.4685.85-.7365,1.383-.6383.438.0818.809.3805,1.062.7446.252.3642.4.7897.523,1.2152.105.3559.195.7201.21,1.0903.043,1.0802-.581,2.1133-1.439,2.7761-.859.6628-1.924,1.0024-3.039,1.3133-.88,2.0682-2.681,3.7273-4.852,4.4944Z" fill="#fbd9bf"></path><path d="M125.479,72.883c.099,1.0188.477,4.5415.222,6.0962-.419.5155-.866.7549-1.342.8981-.082-1.9619-.368-4.0116-.93-5.9837-.462-1.6202-1.246-3.3325-2.786-4.0259-1.903.45-3.644,1.0167-5.384,1.5833-1.232.401-2.501.806-3.794.7385s-2.642-.7139-3.167-1.8943c-.275.806-.848,1.5916-1.63,1.8555s-1.716-.0144-2.223-.6628c-.489,2.7944-.746,5.5479-.863,8.3075-.466.2414-.95-.0695-1.161-.4807-.212-.4112-.22-.8919-.224-1.3542-.01-1.2766-.021-2.5531-.031-3.8296-.014-1.7839-.016-3.6291.708-5.2595.723-1.6304,2.381-2.9929,4.371-2.8599.607-.9758,1.642-1.6406,2.748-1.9659c1.107-.3253,2.285-.3355,3.979-.1105c2.666.0389,5.363.7733,7.509,2.3505c2.145,1.5773,3.767,4.163,4.001,6.5954l-.003.002Z" fill="#9f3502"></path><path d="M90.6476,134.187c-.3901-6.375-.3818-12.774.0226-19.146.4721-3.007.9011-5.509,1.3281-8.009.2504-1.465.5276-2.991,1.4164-4.184.9587-1.284,2.4921-2,3.9988-2.557c2.41-.8917,4.9185-1.5136,7.8045-1.3131.212,2.1481,2.16,3.6881,4.083,4.6761c2.938,1.51,6.489,2.343,9.542,1.078c2.377-.984,4.119-3.117,5.563-5.2774c2.559.6464,5.101,1.3564,7.624,2.1274c1.375.422,2.91,1.009,3.762,2.711c1.349,5.128,1.953,10.451,1.914,16.206-.039,4.801-.078,9.602-.117,14.404l-46.9455-.714.0041-.002Z" fill="#f49b6e"></path><path d="M108.513,80.5339c.587,0,1.063-.4744,1.063-1.0597c0-.5852-.476-1.0596-1.063-1.0596s-1.063.4744-1.063,1.0596c0,.5853.476,1.0597,1.063,1.0597Z" fill="#3b3e45"></path><path d="M119.417,80.487c.588,0,1.064-.4744,1.064-1.0596c0-.5853-.476-1.0597-1.064-1.0597-.587,0-1.063.4744-1.063,1.0597c0,.5852.476,1.0596,1.063,1.0596Z" fill="#3b3e45"></path></g><g><path d="M108.513,83.2201c2.076,0,3.758-1.677,3.758-3.7457s-1.682-3.7456-3.758-3.7456-3.759,1.677-3.759,3.7456s1.683,3.7457,3.759,3.7457Z" fill="none" stroke="#3b3e45" stroke-width="1.1" stroke-linecap="round" stroke-linejoin="round"></path><path d="M119.713,82.8334c2.076,0,3.758-1.677,3.758-3.7457s-1.682-3.7457-3.758-3.7457-3.759,1.677-3.759,3.7457s1.683,3.7457,3.759,3.7457Z" fill="none" stroke="#3b3e45" stroke-width="1.1" stroke-linecap="round" stroke-linejoin="round"></path><path d="M104.21,71.126c-.273,2.9785-.355,5.9755-.598,9.089-.782-.8796-2.35-.8796-3.132,0-.351.3949-.54.9104-.6159,1.432-.1232.8429.0431,1.743.5459,2.4303.809,1.1067,2.275,1.4709,3.619,1.7593" fill="none" stroke="#3b3e45" stroke-width="1.1" stroke-linecap="round" stroke-linejoin="round"></path><path d="M103.81,83.7581c.014,1.7593.706,3.5042,1.898,4.7992c1.193,1.2949,2.88,2.1296,4.543,2.4732-.024,1.8596-.047,3.7171-.072,5.5766" fill="none" stroke="#3b3e45" stroke-width="1.1" stroke-linecap="round" stroke-linejoin="round"></path><path d="M114.597,91.4542c2.072.0225,4.451-.3519,6.138-1.5527c1.688-1.2008,3.324-3.1954,3.504-6.5953" fill="none" stroke="#3b3e45" stroke-width="1.1" stroke-linecap="round" stroke-linejoin="round"></path><path d="M118.865,90.8362c0,1.7879.099,3.9809.096,5.7689" fill="none" stroke="#3b3e45" stroke-width="1.1" stroke-linecap="round" stroke-linejoin="round"></path><path d="M124.14,86.4073c1.216-.3744,2.527-.8224,3.217-1.8862.347-.5359.493-1.1783.556-1.8125.097-.9573-.018-2.0088-.675-2.7146s-1.985-.804-2.511,0" fill="none" stroke="#3b3e45" stroke-width="1.1" stroke-linecap="round" stroke-linejoin="round"></path><path d="M120.735,69.8086c1.78.8408,2.578,2.911,3.011,4.8258.431,1.9046.67,3.8541.709,5.8057" fill="none" stroke="#3b3e45" stroke-width="1.1" stroke-linecap="round" stroke-linejoin="round"></path><path d="M120.257,69.5813c-2.193.9799-4.5,1.7041-6.861,2.1541-.967.1841-1.972.3212-2.931.0921s-1.866-.9022-2.418-1.9046c-.008.9104-.661,1.7798-1.538,2.0396-.876.2598-1.901-.1064-2.408-.8633" fill="none" stroke="#3b3e45" stroke-width="1.1" stroke-linecap="round" stroke-linejoin="round"></path><path d="M102.551,79.4499c-.318-2.148-.466-4.3225-.443-6.493.024-1.9394.332-3.4941,1.172-4.7706.839-1.2765,2.285-2.2319,3.997-2.2585.962-1.6263,3.112-2.0641,5.006-2.105c2.671-.0593,5.395.3621,7.768,1.5854c2.373,1.2234,4.364,3.3038,5.235,6.2803.472,2.5572.574,5.1818.299,7.7676" fill="none" stroke="#3b3e45" stroke-width="1.1" stroke-linecap="round" stroke-linejoin="round"></path><path d="M101.402,82.1809c.078-.3907.511-.6444.909-.6075.398.0368.745.3068.971.6362s.347.716.468,1.0965" fill="none" stroke="#3b3e45" stroke-width="1.1" stroke-linecap="round" stroke-linejoin="round"></path><path d="M126.337,81.9189c-.472-.1596-.996-.3191-1.458-.1289-.472.1944-.747.7672-.603,1.2561" fill="none" stroke="#3b3e45" stroke-width="1.1" stroke-linecap="round" stroke-linejoin="round"></path><path d="M106.854,74.8388c.558-.5237,1.328-.8142,2.094-.7917s1.517.3601,2.042.9165" fill="none" stroke="#3b3e45" stroke-width="1.1" stroke-linecap="round" stroke-linejoin="round"></path><path d="M117.606,74.8021c.583-.5278,1.351-.8695,2.139-.8776s1.587.3293,2.076.9471" fill="none" stroke="#3b3e45" stroke-width="1.1" stroke-linecap="round" stroke-linejoin="round"></path><path d="M116.124,75.2788c-.688.315-1.287.8183-1.644,1.5425-.212,1.3951.217,2.8721,1.145,3.9379.216.2476.458.4767.618.761s.228.6506.07.937c-.335.6096-1.437.5421-1.624,1.211" fill="none" stroke="#3b3e45" stroke-width="1.1" stroke-linecap="round" stroke-linejoin="round"></path><path d="M111.235,84.9814c1.078,2.281,5.555,2.369,6.628.0123" fill="none" stroke="#3b3e45" stroke-width="1.1" stroke-linecap="round" stroke-linejoin="round"></path><path d="M112.735,79.5603h3.106" fill="none" stroke="#3b3e45" stroke-width="1.1" stroke-linecap="round" stroke-linejoin="round"></path><path d="M123.845,79.3618h1.314" fill="none" stroke="#3b3e45" stroke-width="1.1" stroke-linecap="round" stroke-linejoin="round"></path><path d="M104.612,79.4807h-1.792" fill="none" stroke="#3b3e45" stroke-width="1.1" stroke-linecap="round" stroke-linejoin="round"></path><path d="M109.746,95.3982c-1.578,1.0535-3.155,2.105-4.733,3.1586" fill="none" stroke="#3b3e45" stroke-width="1.1" stroke-linecap="round" stroke-linejoin="round"></path><path d="M119.468,95.5598c1.359,1.2152,2.72,2.4283,4.079,3.6434" fill="none" stroke="#3b3e45" stroke-width="1.1" stroke-linecap="round" stroke-linejoin="round"></path><path d="M110.023,96.8198c1.497,1.4668,2.995,2.9315,4.492,4.3982" fill="none" stroke="#3b3e45" stroke-width="1.1" stroke-linecap="round" stroke-linejoin="round"></path><path d="M119.148,96.998c-1.605,1.3891-3.124,2.8784-4.727,4.605l-2.383,2.561" fill="none" stroke="#3b3e45" stroke-width="1.1" stroke-linecap="round" stroke-linejoin="round"></path><path d="M114.641,101.76c.657,1.089,1.412,2.12,2.249,3.077" fill="none" stroke="#3b3e45" stroke-width="1.1" stroke-linecap="round" stroke-linejoin="round"></path><path d="M105.288,98.8186c.897,5.8344,14.778,10.4634,18.535.5708" fill="none" stroke="#3b3e45" stroke-width="1.1" stroke-linecap="round" stroke-linejoin="round"></path><path d="M104.717,98.5137c-1.87.2639-3.685.8162-5.4911,1.3665-1.6484.5028-3.3193,1.0148-4.9513,1.9398-2.0015,1.998-2.5701,4.981-2.9416,7.779-1.0634,8.005-1.3118,16.116-.7431,24.17" fill="none" stroke="#3b3e45" stroke-width="1.1" stroke-linecap="round" stroke-linejoin="round"></path><path d="M123.991,99.3586c3.054.6894,6.07,1.5584,9.022,2.6024.675.239,1.383.511,2.254,1.237c1.513,3.742,1.837,7.844,2.04,11.874.329,6.515.384,13.045.164,19.567" fill="none" stroke="#3b3e45" stroke-width="1.1" stroke-linecap="round" stroke-linejoin="round"></path><path d="M96.2144,108.028c.6651,1.981,1.1126,4.032,1.3219,6.565.4989,6.362.5912,12.755.2772,19.127" fill="none" stroke="#3b3e45" stroke-width="1.1" stroke-linecap="round" stroke-linejoin="round"></path><path d="M105.511,100.66l-1.72,1.438" fill="none" stroke="#3b3e45" stroke-width="1.1" stroke-linecap="round" stroke-linejoin="round"></path><path d="M108.024,103.36c-.435.573-.811,1.191-1.121,1.839" fill="none" stroke="#3b3e45" stroke-width="1.1" stroke-linecap="round" stroke-linejoin="round"></path><path d="M111.851,105.07l-.46,2.234" fill="none" stroke="#3b3e45" stroke-width="1.1" stroke-linecap="round" stroke-linejoin="round"></path><path d="M115.673,105.659l.131,2.3" fill="none" stroke="#3b3e45" stroke-width="1.1" stroke-linecap="round" stroke-linejoin="round"></path><path d="M119.555,104.878c.359.567.644,1.18.845,1.821" fill="none" stroke="#3b3e45" stroke-width="1.1" stroke-linecap="round" stroke-linejoin="round"></path><path d="M122.336,103.094l1.188,1.445" fill="none" stroke="#3b3e45" stroke-width="1.1" stroke-linecap="round" stroke-linejoin="round"></path><path d="M123.71,100.615c.835.411,1.611.947,2.289,1.585" fill="none" stroke="#3b3e45" stroke-width="1.1" stroke-linecap="round" stroke-linejoin="round"></path><path d="M101.696,99.6145c.661,2.7985,2.317,5.0895,4.278,6.5505c1.962,1.46,4.214,2.156,6.462,2.489c2.81.418,5.721.283,8.371-1c2.648-1.283,5.015-3.819,6.072-7.211" fill="none" stroke="#3b3e45" stroke-width="1.1" stroke-linecap="round" stroke-linejoin="round"></path></g></g></g><mask id="e0EM9CcoNuO97" x="-150%" y="-150%" height="400%" width="400%"><rect width="47.4141" height="56.8969" rx="0" ry="0" transform="translate(90.293 60.6206)" fill="#fff"></rect></mask></g></g></g><mask id="e0EM9CcoNuO99" x="-150%" y="-150%" height="400%" width="400%"><ellipse rx="23.707" ry="23.707" transform="translate(114 84.3276)" fill="#d9d9d9"></ellipse></mask></g></g></g><path d="M37.645,128.71h152.71c.596,0,1.079.483,1.079,1.079c0,4.813-3.901,8.714-8.714,8.714h-137.4395c-4.8128,0-8.7144-3.901-8.7144-8.714c0-.596.483-1.079,1.0789-1.079Z" fill="#cbcfd4" stroke="#3b3e45" stroke-width="1.66"></path><g><path d="M67,122.46h95v7.08h-95v-7.08Z" fill="#52575e"></path><g mask="url(#e0EM9CcoNuO106)"><path d="M67,124.06h95v-3.2h-95v3.2Zm95,3.88h-95v3.2h95v-3.2Z" fill="#3b3e45"></path><mask id="e0EM9CcoNuO106" x="-150%" y="-150%" height="400%" width="400%"><path d="M67,122.46h95v7.08h-95v-7.08Z" fill="#fff"></path></mask></g></g><path d="M96.0246,128.71h34.9964c.156,0,.283.127.283.284c0,2.616-2.121,4.737-4.737,4.737h-26.088c-2.6168,0-4.7379-2.121-4.7379-4.737c0-.157.127-.284.2835-.284Z" fill="#aeb3bb" stroke="#3b3e45" stroke-width="1.66"></path></g></g></svg> 